<?xml version="1.0" encoding="UTF-8"?>
<svg xmlns="http://www.w3.org/2000/svg" xmlns:xlink="http://www.w3.org/1999/xlink" viewBox="0 0 62 62" width="62px" height="62px">
<g id="surface8425234">
<path style=" stroke:none;fill-rule:nonzero;fill:rgb(14.117648%,14.901961%,20.784314%);fill-opacity:1;" d="M 56.140625 2.882812 C 55.902344 2.625 55.574219 2.480469 55.226562 2.480469 L 6.773438 2.480469 C 6.425781 2.480469 6.097656 2.625 5.859375 2.882812 C 5.625 3.140625 5.507812 3.484375 5.539062 3.832031 L 9.90625 52.71875 C 9.949219 53.230469 10.308594 53.660156 10.800781 53.800781 L 30.652344 59.472656 C 30.761719 59.503906 30.878906 59.519531 30.992188 59.519531 C 31.105469 59.519531 31.222656 59.503906 31.332031 59.472656 L 51.203125 53.800781 C 51.695312 53.660156 52.050781 53.230469 52.097656 52.71875 L 56.460938 3.832031 C 56.492188 3.484375 56.375 3.140625 56.140625 2.882812 Z M 14.878906 35.964844 L 23.558594 38.371094 L 23.558594 13.640625 L 28.519531 13.640625 L 28.519531 45.878906 L 14.878906 42.097656 Z M 47.1875 27.28125 L 45.878906 42.46875 L 33.480469 45.878906 L 33.480469 40.175781 L 41.851562 37.875 L 42.160156 33.222656 L 33.480469 34.71875 L 33.480469 13.640625 L 48.359375 13.640625 L 47.933594 18.601562 L 38.441406 18.601562 L 38.441406 28.519531 Z M 47.1875 27.28125 "/>
</g>
</svg>
